<svg width="65" height="82" viewBox="0 0 65 82" fill="none" xmlns="http://www.w3.org/2000/svg">
<path d="M32.5 79.0662C49.0685 79.0662 62.5 69.5468 62.5 57.8041C62.5 46.0614 49.0685 36.542 32.5 36.542C15.9315 36.542 2.5 46.0614 2.5 57.8041C2.5 69.5468 15.9315 79.0662 32.5 79.0662Z" stroke="white" stroke-width="5" stroke-miterlimit="10"/>
<path d="M17.885 46.4463C18.5795 46.4463 19.2812 46.8924 19.8342 47.7666C20.3833 48.6347 20.7395 49.8654 20.7395 51.25C20.7394 52.6344 20.3833 53.8644 19.8342 54.7324C19.2812 55.6067 18.5796 56.0527 17.885 56.0527C17.1905 56.0527 16.4888 55.6067 15.9358 54.7324C15.3868 53.8644 15.0306 52.6344 15.0305 51.25C15.0305 49.8654 15.3867 48.6347 15.9358 47.7666C16.4888 46.8924 17.1905 46.4463 17.885 46.4463Z" fill="white" stroke="white"/>
<path d="M46.7954 46.4463C47.4899 46.4463 48.1916 46.8924 48.7446 47.7666C49.2937 48.6347 49.6499 49.8654 49.6499 51.25C49.6498 52.6344 49.2937 53.8644 48.7446 54.7324C48.1916 55.6067 47.49 56.0527 46.7954 56.0527C46.1009 56.0527 45.3992 55.6067 44.8462 54.7324C44.2972 53.8644 43.941 52.6344 43.9409 51.25C43.9409 49.8654 44.2971 48.6347 44.8462 47.7666C45.3992 46.8924 46.1009 46.4463 46.7954 46.4463Z" fill="white" stroke="white"/>
<path d="M3.54907 51.6962C6.94709 17.8956 10.8778 18.5007 10.8778 18.5007C20.559 39.0963 17.0382 35.584 20.559 39.0963" stroke="white" stroke-width="5" stroke-miterlimit="10"/>
<path d="M61.2663 51.6962C57.8682 17.8956 53.9375 18.5007 53.9375 18.5007C44.2563 39.0963 47.7771 35.584 44.2563 39.0963" stroke="white" stroke-width="5" stroke-miterlimit="10"/>
<path d="M32.5 56.6182C33.2292 56.6182 33.8028 56.8262 34.1396 57.0596C34.3336 57.194 34.3997 57.2961 34.4219 57.3428C34.4002 57.389 34.335 57.4915 34.1396 57.627C33.8028 57.8604 33.2293 58.0684 32.5 58.0684C31.7707 58.0684 31.1971 57.8604 30.8604 57.627C30.6644 57.4911 30.5986 57.3888 30.5771 57.3428C30.5991 57.2962 30.6659 57.1944 30.8604 57.0596C31.1972 56.8262 31.7708 56.6182 32.5 56.6182Z" fill="white" stroke="white" stroke-width="4"/>
<path d="M32.5005 57.3428C32.5005 57.3428 29.8946 75.8183 15.8728 60.9164" stroke="white" stroke-width="3" stroke-miterlimit="10"/>
<path d="M32.5 57.3428C32.5 57.3428 35.1059 75.8183 49.1277 60.9164" stroke="white" stroke-width="3" stroke-miterlimit="10"/>
<path d="M43.8054 3.53297C43.8054 3.53297 39.2787 2.75813 39.045 9.24921C38.8866 13.659 38.4113 6.61393 35.4906 3.55546L35.4925 3.5064C35.4371 3.46755 35.3856 3.4328 35.3302 3.39395C34.5618 2.64978 33.6292 2.18569 32.4985 2.25725C31.3678 2.18569 30.4371 2.64978 29.6668 3.39395C29.6133 3.43075 29.5599 3.46551 29.5044 3.5064L29.5064 3.55546C26.5876 6.61598 26.1123 13.6611 25.9519 9.24921C25.7183 2.75813 21.1915 3.53297 21.1915 3.53297C21.1915 3.53297 15.2331 4.26488 15.8708 10.3655C16.5064 16.4661 22.2965 16.6746 22.2965 16.6746V36.9063H30.5599H34.4371H42.7005V16.6746C42.7005 16.6746 48.4886 16.4661 49.1262 10.3655C49.7638 4.26488 43.8054 3.53297 43.8054 3.53297Z" stroke="white" stroke-width="4.5" stroke-miterlimit="10"/>
</svg>
