<svg width="70" height="68" viewBox="0 0 70 68" fill="none" xmlns="http://www.w3.org/2000/svg">
<path d="M2.9165 2.91699H14.5832L22.3998 41.9712C22.6666 43.314 23.3971 44.5202 24.4635 45.3787C25.53 46.2372 26.8644 46.6932 28.2332 46.667H56.5832C57.952 46.6932 59.2864 46.2372 60.3528 45.3787C61.4193 44.5202 62.1498 43.314 62.4165 41.9712L67.0832 17.5003H17.4998M29.1665 61.2503C29.1665 62.8612 27.8607 64.167 26.2498 64.167C24.639 64.167 23.3332 62.8612 23.3332 61.2503C23.3332 59.6395 24.639 58.3337 26.2498 58.3337C27.8607 58.3337 29.1665 59.6395 29.1665 61.2503ZM61.2498 61.2503C61.2498 62.8612 59.944 64.167 58.3332 64.167C56.7223 64.167 55.4165 62.8612 55.4165 61.2503C55.4165 59.6395 56.7223 58.3337 58.3332 58.3337C59.944 58.3337 61.2498 59.6395 61.2498 61.2503Z" stroke="white" stroke-width="6" stroke-linecap="round" stroke-linejoin="round"/>
</svg>
