<svg width="64" height="59" viewBox="0 0 64 59" fill="none" xmlns="http://www.w3.org/2000/svg">
<path d="M31.8015 58.3558L27.1903 54.2216C21.8371 49.3984 17.4113 45.2377 13.9132 41.7395C10.415 38.2413 7.63237 35.1142 5.56527 32.3581C3.49817 29.5489 2.0406 26.9783 1.19256 24.6462C0.397519 22.3141 0 19.929 0 17.4908C0 12.5086 1.66958 8.3479 5.00874 5.00874C8.3479 1.66958 12.5086 0 17.4908 0C20.247 0 22.8706 0.583028 25.3617 1.74908C27.8528 2.91514 29.9994 4.55822 31.8015 6.67832C33.6036 4.55822 35.7502 2.91514 38.2413 1.74908C40.7325 0.583028 43.3561 0 46.1122 0C51.0945 0 55.2552 1.66958 58.5943 5.00874C61.9335 8.3479 63.6031 12.5086 63.6031 17.4908C63.6031 19.929 63.179 22.3141 62.331 24.6462C61.536 26.9783 60.1049 29.5489 58.0378 32.3581C55.9707 35.1142 53.1881 38.2413 49.6899 41.7395C46.1917 45.2377 41.766 49.3984 36.4128 54.2216L31.8015 58.3558ZM31.8015 49.7694C36.8898 45.2112 41.077 41.3155 44.3631 38.0823C47.6493 34.7962 50.2464 31.9605 52.1545 29.5754C54.0626 27.1373 55.3877 24.9907 56.1297 23.1356C56.8717 21.2275 57.2428 19.3459 57.2428 17.4908C57.2428 14.3107 56.1827 11.6606 54.0626 9.54046C51.9425 7.42036 49.2924 6.36031 46.1122 6.36031C43.6211 6.36031 41.3155 7.07584 39.1954 8.50691C37.0753 9.88498 35.6177 11.6606 34.8227 13.8337H28.7804C27.9853 11.6606 26.5278 9.88498 24.4077 8.50691C22.2876 7.07584 19.982 6.36031 17.4908 6.36031C14.3107 6.36031 11.6606 7.42036 9.54046 9.54046C7.42036 11.6606 6.36031 14.3107 6.36031 17.4908C6.36031 19.3459 6.73132 21.2275 7.47336 23.1356C8.2154 24.9907 9.54046 27.1373 11.4486 29.5754C13.3566 31.9605 15.9538 34.7962 19.2399 38.0823C22.5261 41.3155 26.7133 45.2112 31.8015 49.7694Z" fill="#FF9595"/>
</svg>
