<svg width="54" height="54" viewBox="0 0 54 54" fill="none" xmlns="http://www.w3.org/2000/svg">
<path d="M26.6667 26.6667C23 26.6667 19.8611 25.3611 17.25 22.75C14.6389 20.1389 13.3333 17 13.3333 13.3333C13.3333 9.66667 14.6389 6.52778 17.25 3.91667C19.8611 1.30556 23 0 26.6667 0C30.3333 0 33.4722 1.30556 36.0833 3.91667C38.6944 6.52778 40 9.66667 40 13.3333C40 17 38.6944 20.1389 36.0833 22.75C33.4722 25.3611 30.3333 26.6667 26.6667 26.6667ZM0 53.3333V44C0 42.1111 0.486111 40.375 1.45833 38.7917C2.43056 37.2083 3.72222 36 5.33333 35.1667C8.77778 33.4444 12.2778 32.1528 15.8333 31.2917C19.3889 30.4306 23 30 26.6667 30C30.3333 30 33.9444 30.4306 37.5 31.2917C41.0556 32.1528 44.5556 33.4444 48 35.1667C49.6111 36 50.9028 37.2083 51.875 38.7917C52.8472 40.375 53.3333 42.1111 53.3333 44V53.3333H0ZM6.66667 46.6667H46.6667V44C46.6667 43.3889 46.5139 42.8333 46.2083 42.3333C45.9028 41.8333 45.5 41.4444 45 41.1667C42 39.6667 38.9722 38.5417 35.9167 37.7917C32.8611 37.0417 29.7778 36.6667 26.6667 36.6667C23.5556 36.6667 20.4722 37.0417 17.4167 37.7917C14.3611 38.5417 11.3333 39.6667 8.33333 41.1667C7.83333 41.4444 7.43056 41.8333 7.125 42.3333C6.81944 42.8333 6.66667 43.3889 6.66667 44V46.6667ZM26.6667 20C28.5 20 30.0694 19.3472 31.375 18.0417C32.6806 16.7361 33.3333 15.1667 33.3333 13.3333C33.3333 11.5 32.6806 9.93056 31.375 8.625C30.0694 7.31944 28.5 6.66667 26.6667 6.66667C24.8333 6.66667 23.2639 7.31944 21.9583 8.625C20.6528 9.93056 20 11.5 20 13.3333C20 15.1667 20.6528 16.7361 21.9583 18.0417C23.2639 19.3472 24.8333 20 26.6667 20Z" fill="white"/>
</svg>
