<svg width="67" height="62" viewBox="0 0 67 62" fill="none" xmlns="http://www.w3.org/2000/svg">
<path d="M33.3333 61.1667L28.5 56.8333C22.8889 51.7778 18.25 47.4167 14.5833 43.75C10.9167 40.0833 8 36.8056 5.83334 33.9167C3.66667 30.9722 2.13889 28.2778 1.25 25.8333C0.416667 23.3889 0 20.8889 0 18.3333C0 13.1111 1.75 8.75 5.25 5.25C8.75 1.75 13.1111 0 18.3333 0C21.2222 0 23.9722 0.611111 26.5833 1.83333C29.1944 3.05556 31.4444 4.77778 33.3333 7C35.2222 4.77778 37.4722 3.05556 40.0833 1.83333C42.6944 0.611111 45.4445 0 48.3333 0C53.5556 0 57.9167 1.75 61.4167 5.25C64.9167 8.75 66.6667 13.1111 66.6667 18.3333C66.6667 20.8889 66.2222 23.3889 65.3333 25.8333C64.5 28.2778 63 30.9722 60.8333 33.9167C58.6667 36.8056 55.75 40.0833 52.0833 43.75C48.4167 47.4167 43.7778 51.7778 38.1667 56.8333L33.3333 61.1667ZM33.3333 52.1667C38.6667 47.3889 43.0556 43.3056 46.5 39.9167C49.9444 36.4722 52.6667 33.5 54.6667 31C56.6667 28.4444 58.0556 26.1944 58.8333 24.25C59.6111 22.25 60 20.2778 60 18.3333C60 15 58.8889 12.2222 56.6667 10C54.4444 7.77778 51.6667 6.66667 48.3333 6.66667C45.7222 6.66667 43.3056 7.41667 41.0833 8.91667C38.8611 10.3611 37.3333 12.2222 36.5 14.5H30.1667C29.3333 12.2222 27.8056 10.3611 25.5833 8.91667C23.3611 7.41667 20.9444 6.66667 18.3333 6.66667C15 6.66667 12.2222 7.77778 10 10C7.77778 12.2222 6.66667 15 6.66667 18.3333C6.66667 20.2778 7.05556 22.25 7.83333 24.25C8.61111 26.1944 10 28.4444 12 31C14 33.5 16.7222 36.4722 20.1667 39.9167C23.6111 43.3056 28 47.3889 33.3333 52.1667Z" fill="white"/>
</svg>
