<svg width="27" height="27" viewBox="0 0 27 27" fill="none" xmlns="http://www.w3.org/2000/svg">
<g clip-path="url(#clip0_620_649)">
<path d="M24.7501 19.0351V22.4101C24.7514 22.7234 24.6872 23.0335 24.5617 23.3206C24.4362 23.6077 24.2521 23.8654 24.0212 24.0772C23.7903 24.289 23.5178 24.4503 23.221 24.5507C22.9241 24.651 22.6097 24.6883 22.2976 24.6601C18.8358 24.284 15.5105 23.101 12.5889 21.2064C9.87066 19.4791 7.56611 17.1746 5.83886 14.4564C3.93758 11.5215 2.75438 8.17998 2.38511 4.70261C2.35699 4.39151 2.39397 4.07796 2.49367 3.78194C2.59337 3.48591 2.75363 3.21388 2.96422 2.98318C3.17481 2.75248 3.43114 2.56816 3.71687 2.44195C4.00261 2.31574 4.31149 2.2504 4.62386 2.25011H7.99886C8.54483 2.24474 9.07412 2.43807 9.48809 2.79408C9.90206 3.15009 10.1724 3.64449 10.2489 4.18511C10.3913 5.26518 10.6555 6.32568 11.0364 7.34636C11.1877 7.74902 11.2205 8.18664 11.1308 8.60735C11.041 9.02806 10.8326 9.41423 10.5301 9.72011L9.10136 11.1489C10.7029 13.9653 13.0349 16.2974 15.8514 17.8989L17.2801 16.4701C17.586 16.1676 17.9722 15.9592 18.3929 15.8695C18.8136 15.7797 19.2512 15.8125 19.6539 15.9639C20.6745 16.3447 21.735 16.6089 22.8151 16.7514C23.3616 16.8285 23.8607 17.1037 24.2175 17.5248C24.5742 17.9459 24.7638 18.4834 24.7501 19.0351Z" stroke="white" stroke-width="3" stroke-linecap="round" stroke-linejoin="round"/>
</g>
<defs>
<clipPath id="clip0_620_649">
<rect width="27" height="27" fill="white"/>
</clipPath>
</defs>
</svg>
